<svg xmlns="http://www.w3.org/2000/svg" xmlns:osb="http://www.openswatchbook.org/uri/2009/osb" xmlns:svg="http://www.w3.org/2000/svg" xmlns:xlink="http://www.w3.org/1999/xlink" id="svg2" width="400" height="400" version="1.1" viewBox="0 0 400 400"><defs id="defs4"><linearGradient id="linearGradient848"><stop id="stop844" offset="0" style="stop-color:#fff;stop-opacity:1"/><stop id="stop846" offset="1" style="stop-color:#fff;stop-opacity:0"/></linearGradient><linearGradient id="linearGradient4551"><stop style="stop-color:#fff;stop-opacity:1" id="stop4547" offset="0"/><stop style="stop-color:#fff;stop-opacity:0" id="stop4549" offset="1"/></linearGradient><linearGradient id="linearGradient4316"><stop style="stop-color:#226e23;stop-opacity:1" id="stop4318" offset="0"/><stop style="stop-color:#63ab3a;stop-opacity:1" id="stop4320" offset="1"/></linearGradient><linearGradient id="linearGradient4153" osb:paint="solid"><stop style="stop-color:#b3b3b3;stop-opacity:1" id="stop4155" offset="0"/></linearGradient><linearGradient id="linearGradient4324" x1="50.758" x2="50.758" y1="964.837" y2="1042.263" gradientTransform="matrix(1.0561225,0,0,1.0561225,-2.8061215,-1008.6172)" gradientUnits="userSpaceOnUse" xlink:href="#linearGradient4316"/><radialGradient id="radialGradient5106" cx="-82.911" cy="41.189" r="43.572" fx="-82.911" fy="41.189" gradientUnits="userSpaceOnUse" xlink:href="#linearGradient4316"/><linearGradient id="linearGradient4324-3" x1="50.758" x2="50.758" y1="964.837" y2="1042.263" gradientTransform="matrix(1.0561225,0,0,1.0561225,118.96071,-1109.1994)" gradientUnits="userSpaceOnUse" xlink:href="#linearGradient4316"/><linearGradient id="linearGradient4324-3-6" x1="50.758" x2="50.758" y1="964.837" y2="1042.263" gradientTransform="matrix(1.0561225,0,0,1.0561225,-2.8061235,-1008.6171)" gradientUnits="userSpaceOnUse" xlink:href="#linearGradient4316"/><linearGradient id="linearGradient5199" x1="53.239" x2="53.239" y1="12.753" y2="86.357" gradientTransform="matrix(3.7956531,0,0,3.7956531,9.2052011,7.1809209)" gradientUnits="userSpaceOnUse" xlink:href="#linearGradient4316"/><linearGradient id="linearGradient4553" x1="-326.678" x2="-48.525" y1="-45.825" y2="-45.825" gradientTransform="matrix(1.94081,0,0,1.8710802,248.41865,279.07651)" gradientUnits="userSpaceOnUse" xlink:href="#linearGradient4551"/><linearGradient id="linearGradient842" x1="-270.922" x2="-48.525" y1="-81.951" y2="-45.825" gradientTransform="matrix(1.1339564,0,0,1.6084199,370.43874,273.70526)" gradientUnits="userSpaceOnUse" xlink:href="#linearGradient848"/><linearGradient id="linearGradient856" x1="-270.922" x2="-122.648" y1="-81.951" y2="-52.828" gradientTransform="matrix(1.1339564,0,0,1.6084199,370.43874,273.70526)" gradientUnits="userSpaceOnUse" xlink:href="#linearGradient848"/><radialGradient id="radialGradient864" cx="46.961" cy="168.337" r="157.707" fx="46.961" fy="168.337" gradientTransform="matrix(1.2164529,1.1254339,-0.89269349,0.96488966,132.14067,-53.404357)" gradientUnits="userSpaceOnUse" xlink:href="#linearGradient848"/><radialGradient id="radialGradient874" cx="-9.324" cy="121.73" r="157.707" fx="-9.324" fy="121.73" gradientTransform="matrix(0.96274844,1.8215723,-1.4639086,0.77371372,199.30904,-23.641878)" gradientUnits="userSpaceOnUse" xlink:href="#linearGradient848"/><radialGradient id="radialGradient880" cx="-9.324" cy="121.73" r="157.707" fx="-9.324" fy="121.73" gradientTransform="matrix(-0.00717113,2.8325787,-1.5239128,-0.00385817,197.56997,80.438211)" gradientUnits="userSpaceOnUse" xlink:href="#linearGradient848"/><radialGradient id="radialGradient982" cx="-9.324" cy="121.73" r="157.707" fx="-9.324" fy="121.73" gradientTransform="matrix(0.02197802,4.8325787,-1.5942812,0.00725037,206.40768,97.733628)" gradientUnits="userSpaceOnUse" xlink:href="#linearGradient848"/><radialGradient id="radialGradient848" cx="-9.324" cy="121.73" r="157.707" fx="-9.324" fy="121.73" gradientTransform="matrix(0,3.6622493,-1.4325805,-1.8197637e-7,186.51898,87.704285)" gradientUnits="userSpaceOnUse" xlink:href="#linearGradient848"/><radialGradient id="radialGradient854" cx="-9.324" cy="121.73" r="157.707" fx="-9.324" fy="121.73" gradientTransform="matrix(0,3.1237879,-1.4325805,-1.5522034e-7,186.51898,82.68376)" gradientUnits="userSpaceOnUse" xlink:href="#linearGradient848"/><radialGradient id="radialGradient849" cx="-9.324" cy="121.73" r="157.707" fx="-9.324" fy="121.73" gradientTransform="matrix(0,2.5743375,-1.4325805,-1.2791827e-7,186.51898,77.560775)" gradientUnits="userSpaceOnUse" xlink:href="#linearGradient848"/><radialGradient id="radialGradient857" cx="-9.324" cy="121.73" r="157.707" fx="-9.324" fy="121.73" gradientTransform="matrix(0,2.3710409,-1.4325805,-1.178165e-7,186.51898,75.665271)" gradientUnits="userSpaceOnUse" xlink:href="#linearGradient848"/><radialGradient id="radialGradient863" cx="-9.324" cy="121.73" r="157.707" fx="-9.324" fy="121.73" gradientTransform="matrix(0,2.3710409,-1.4325805,-1.178165e-7,299.06959,72.426405)" gradientUnits="userSpaceOnUse" xlink:href="#linearGradient848"/><mask id="mask859" maskUnits="userSpaceOnUse"><rect id="rect861" width="315.413" height="400" x="112.551" y="-3.239" style="fill:url(#radialGradient863);fill-opacity:1;stroke-width:1.35051024" mask="none"/></mask></defs><metadata id="metadata7"/><g id="g24" mask="url(#mask859)" transform="translate(-112.55061,3.2388664)"><circle r="174.35" style="opacity:.87099998;fill:#fff;fill-opacity:1;fill-rule:evenodd;stroke:#000;stroke-width:11.88748455;stroke-linecap:round;stroke-linejoin:round;stroke-miterlimit:4;stroke-dasharray:none;stroke-opacity:.78431373" id="path5201" cx="198.988" cy="196.964"/><circle style="opacity:1;fill:none;fill-opacity:1;fill-rule:evenodd;stroke:none;stroke-width:5.69348001;stroke-linecap:round;stroke-linejoin:round;stroke-miterlimit:4;stroke-dasharray:none;stroke-opacity:1" id="path3336" cx="198.988" cy="196.964" r="160.637"/><path style="opacity:1;fill:#f9f9f9;fill-opacity:1;fill-rule:evenodd;stroke:none;stroke-width:9.48913288;stroke-linecap:round;stroke-linejoin:round;stroke-miterlimit:4;stroke-dasharray:none;stroke-opacity:1" id="path4264" d="M 198.98785,31.185462 A 165.78074,165.78074 0 0 0 33.209743,196.96356 165.78074,165.78074 0 0 0 198.98785,362.74167 165.78074,165.78074 0 0 0 364.76596,196.96356 165.78074,165.78074 0 0 0 198.98785,31.185462 Z m 0,25.472401 c 8.59424,0.03031 17.16925,0.853638 25.61325,2.453814 0.40674,1.835873 0.63755,3.73499 0.63755,5.69348 0,14.509453 -11.75616,26.258395 -26.25821,26.250812 -14.50202,0.0083 -26.25079,-11.73385 -26.25079,-26.243413 0,-1.966534 0.23547,-3.872865 0.64495,-5.715722 8.44454,-1.594777 17.01951,-2.412896 25.61325,-2.438971 z m -72.09516,20.112482 c -0.91297,4.62751 -1.40945,9.391006 -1.40854,14.285624 0,29.301141 17.1882,54.535791 41.99682,66.349761 v 133.18888 l 31.49947,31.49948 31.50688,-31.50687 -1.80886,-27.89657 14.85643,-14.84901 -14.85643,-14.84901 22.28462,-22.26983 -22.28462,-22.28461 1.80886,-31.03987 c 24.81606,-11.80664 42.00424,-37.04121 42.00424,-66.342351 0,-4.88486 -0.50632,-9.644717 -1.41595,-14.263382 42.25494,25.307703 68.14884,70.916983 68.21796,120.170973 -0.002,77.4867 -62.81902,140.30363 -140.30572,140.30571 C 121.50116,337.26743 58.6842,274.45026 58.682132,196.96356 58.741155,147.70264 84.633476,102.08443 126.89269,76.770345 Z m 51.08563,98.301485 h 10.50476 v 105.01061 h -10.49735 l -0.008,-105.00321 v -0.008 z"/><path style="opacity:.93999999;fill:url(#linearGradient5199);fill-opacity:1;fill-rule:nonzero;stroke:none;stroke-width:3.03652239;stroke-linecap:round;stroke-linejoin:round;stroke-miterlimit:4;stroke-dasharray:none;stroke-opacity:1" id="path3336-3-2-7" d="m 224.59926,59.112359 c 0.40674,1.835882 0.63911,3.737385 0.63911,5.695839 0,14.50948 -11.75647,26.258053 -26.25853,26.250461 -14.50201,0.0083 -26.2505,-11.732937 -26.2505,-26.242538 0,-1.966524 0.23761,-3.876946 0.64708,-5.719822 8.44454,-1.594776 17.01769,-2.41038 25.61143,-2.436473 8.59424,0.03031 17.16741,0.85232 25.61141,2.452533 z m -99.11441,31.9463 c 0,29.301141 17.18739,54.531271 41.99601,66.345281 v 133.1939 l 31.49898,31.49903 31.50704,-31.507 -1.80544,-27.89615 14.8508,-14.85088 -14.8508,-14.85086 22.28018,-22.2721 -22.28018,-22.2801 1.8054,-31.04381 c 24.81605,-11.80664 42.00402,-37.03617 42.00402,-66.337311 0,-4.884851 -0.50436,-9.648891 -1.41399,-14.267556 42.25495,25.307677 68.14544,70.918577 68.21456,120.172567 -0.002,77.4867 -62.81687,140.30154 -140.30358,140.30367 -77.48669,-0.002 -140.301528,-62.81697 -140.303577,-140.30367 0.05883,-49.26092 25.947343,-94.88251 68.206567,-120.19655 -0.91297,4.62751 -1.40689,9.396922 -1.40599,14.291539 z m 52.493,84.015711 h 10.50501 v 105.00989 h -10.49704 l -0.008,-105.00195 v -0.008 z"/></g></svg>