<svg xmlns="http://www.w3.org/2000/svg" xmlns:svg="http://www.w3.org/2000/svg" id="svg2112" width="64" height="64" viewBox="0 0 16.933 16.933"><g id="layer1" transform="translate(0,-280.06668)"><g transform="matrix(0.33674243,0,0,0.35277778,0.38484848,280.06668)" style="isolation:isolate" id="g882"><path style="fill:#95a5a6" id="path872" d="m18.271 33.952c.023.306.057.592.057.905.0 3.371-1.369 6.343-3.495 8.143h7.334 3.666 7.334c-2.127-1.8-3.495-4.772-3.495-8.143.0-.313.033-.599.057-.905h-3.896-3.666z"/><path style="fill:#7f8c8d" id="path874" d="m18.271 33.952c.023.181.057.543.057.905.0.905-.085 1.81-.286 2.714h11.916c-.201-.904-.286-1.809-.286-2.714.0-.362.033-.724.057-.905h-3.896-3.666z"/><path style="fill:#bdc3c7" id="path876" d="M3.833 5C2.821 5 2 5.706 2 6.765v1.764 3.53 3.529 3.53 1.764 1.765 1.765 3.529 3.53 1.764C2 34.118 2.821 35 3.833 35h1.834H29.5h11 1.833 1.834C45.179 35 46 34.118 46 33.235V31.471 19.118 17.353 15.588 12.059 8.529 6.765C46 5.706 45.179 5 44.167 5H42.333 33.167 31.333h-16.5H7.5 5.667z"/><rect style="fill:#4d6680" id="rect878" width="38" height="24" x="5" y="8"/><path style="fill:#3f5873" id="path880" d="M43 8 5 32H40.434 43v-2.954z"/></g></g></svg>