<svg xmlns="http://www.w3.org/2000/svg" xmlns:svg="http://www.w3.org/2000/svg" style="isolation:isolate" id="svg3279" width="64" height="64" viewBox="0 0 48 48"><defs id="defs3263"><clipPath id="_clipPath_yCn9pWrMJ5G2bSE2XYUdljYvpNSOoGZX"><rect id="rect3260" width="48" height="48"/></clipPath></defs><g id="g3277" clip-path="url(#_clipPath_yCn9pWrMJ5G2bSE2XYUdljYvpNSOoGZX)"><path id="path3265" d="M40 44H8c-2.2.0-4-1.8-4-4V19.1c0-1.3.6-2.5 1.7-3.3L24 3 42.3 15.8c1.1.7 1.7 2 1.7 3.3V40c0 2.2-1.8 4-4 4z" style="fill:#78909c"/><rect id="rect3267" width="24" height="22" x="12" y="14" style="fill:#fff"/><path id="path3269" d="M40 44H8c-2.2.0-4-1.8-4-4V20L24 33 44 20v20c0 2.2-1.8 4-4 4z" style="fill:#cfd8dc"/><path style="fill:none;stroke:#1c7b9d;stroke-width:1;stroke-linecap:butt;stroke-linejoin:miter;stroke-miterlimit:4;stroke-dasharray:none;stroke-opacity:1" id="path3828" d="m16.220641 18.2845h15"/><path style="isolation:isolate;fill:none;stroke:#1c7b9d;stroke-width:1.00023127;stroke-linecap:butt;stroke-linejoin:miter;stroke-miterlimit:4;stroke-dasharray:none;stroke-opacity:1" id="path3828-4" d="m16.220642 22.374742h15"/><path style="isolation:isolate;fill:none;stroke:#1c7b9d;stroke-width:.99975002;stroke-linecap:butt;stroke-linejoin:miter;stroke-miterlimit:4;stroke-dasharray:none;stroke-opacity:1" id="path3828-7" d="m19.720642 26.464985h8"/></g></svg>