<svg xmlns="http://www.w3.org/2000/svg" xmlns:svg="http://www.w3.org/2000/svg" id="svg24" width="64" height="64"><g id="g22" transform="matrix(2.7777778,0,0,2.777774,-1.3333334,-2857.9961)"><path id="path2" d="m5 1031.4c-1.1046.0-2 .9-2 2v14c0 1.1.8954 2 2 2h13 1c1.105.0 2-.9 2-2v-13l-3-3z" style="fill:#3498db"/><path id="path6" d="m7 3v5c0 .5523.4477 1 1 1h8c.552.0 1-.4477 1-1V3z" transform="translate(0,1028.4)" style="fill:#ecf0f1"/><path id="path8" d="m6 1040.4c-.5523.0-1 .4-1 1v3 2 3h4 6 4v-3-2-3c0-.6-.448-1-1-1h-4-4z" style="fill:#ecf0f1"/><g id="g16" style="fill:#bdc3c7"><rect id="rect10" width="14" height="1" x="5" y="1048.4"/><rect id="rect12" width="10" height="1" x="7" y="1042.4"/><rect id="rect14" width="10" height="1" x="7" y="1044.4"/></g><rect id="rect18" width="3" height="4" x="13" y="1032.4" style="fill:#3498db"/></g></svg>